<?xml version="1.0" encoding="utf-8"?><svg id="ejicon" xmlns="http://www.w3.org/2000/svg" viewBox="-1.333333 -1.333333 34.666667 34.666667" width="26" height="26"><style>.st0{fill-rule:evenodd;clip-rule:evenodd}</style><path d="M20.594 7.12c-.217-.213-.512-.395-.883-.547-.37-.15-.712-.227-1.022-.227H8.278c-.31 0-.573.106-.79.318-.216.213-.325.47-.325.774v18.2c0 .305.11.563.326.775.215.212.48.32.79.32h15.613c.31 0 .573-.108.79-.32.217-.212.326-.47.326-.774V12.533c0-.303-.08-.637-.234-1-.155-.365-.34-.653-.558-.865l-3.624-3.55zm-1.058 1.023l3.637 3.56c.093.092.178.248.256.467h-4.37V7.893c.225.076.384.16.476.25zM8.65 25.275V7.802h8.923v4.732c0 .304.108.562.325.774.217.212.48.32.79.32h4.833v11.647H8.65zm2.975-9.1a.35.35 0 0 0 .104.26c.07.07.158.104.266.104h8.18a.366.366 0 0 0 .267-.104.35.35 0 0 0 .104-.26v-.73a.35.35 0 0 0-.104-.26.366.366 0 0 0-.268-.103h-8.18a.366.366 0 0 0-.266.102.35.35 0 0 0-.105.262v.728zm.37 1.82a.366.366 0 0 0-.266.102.35.35 0 0 0-.105.262v.727a.35.35 0 0 0 .104.262c.07.067.158.1.266.1h8.18a.366.366 0 0 0 .267-.1.35.35 0 0 0 .104-.263v-.728a.35.35 0 0 0-.104-.263.366.366 0 0 0-.268-.102h-8.18zm0 2.912a.366.366 0 0 0-.266.103.35.35 0 0 0-.105.26V22a.35.35 0 0 0 .104.26c.07.07.158.103.266.103h8.18a.366.366 0 0 0 .267-.102.35.35 0 0 0 .104-.26v-.73a.35.35 0 0 0-.104-.26.366.366 0 0 0-.268-.103h-8.18z"/></svg>